REM DIRINDEX 1\2,1\3,1\4,1\5
REM DIRNAME cjc093,folder01,folder02,folder03,folder04
TITLE ""
FILE "Round-02-034-035.mp3" MP3
  TRACK 01 AUDIO
    TITLE "0:"
    INDEX 01 00:00:00
  TRACK 02 AUDIO
    TITLE "2:cjc093_0401"
    INDEX 01 00:00:03
  TRACK 03 AUDIO
    TITLE "0:"
    INDEX 01 00:01:11
  TRACK 04 AUDIO
    TITLE "3:cjc093_0402"
    INDEX 01 00:01:36
  TRACK 05 AUDIO
    TITLE "0:"
    INDEX 01 00:02:61
  TRACK 06 AUDIO
    TITLE "4:cjc093_0403"
    INDEX 01 00:03:17
  TRACK 07 AUDIO
    TITLE "0:"
    INDEX 01 00:07:47
  TRACK 08 AUDIO
    TITLE "3:cjc093_0404"
    INDEX 01 00:08:58
  TRACK 09 AUDIO
    TITLE "0:"
    INDEX 01 00:10:06
  TRACK 10 AUDIO
    TITLE "4:cjc093_0405"
    INDEX 01 00:10:27
  TRACK 11 AUDIO
    TITLE "0:"
    INDEX 01 00:14:00
  TRACK 12 AUDIO
    TITLE "2:cjc093_0406"
    INDEX 01 00:15:15
  TRACK 13 AUDIO
    TITLE "0:"
    INDEX 01 00:16:32
  TRACK 14 AUDIO
    TITLE "3:cjc093_0407"
    INDEX 01 00:16:65
  TRACK 15 AUDIO
    TITLE "0:"
    INDEX 01 00:18:21
  TRACK 16 AUDIO
    TITLE "4:cjc093_0408"
    INDEX 01 00:18:44
  TRACK 17 AUDIO
    TITLE "0:"
    INDEX 01 00:21:66
  TRACK 18 AUDIO
    TITLE "2:cjc093_0409"
    INDEX 01 00:23:03
  TRACK 19 AUDIO
    TITLE "0:"
    INDEX 01 00:24:02
  TRACK 20 AUDIO
    TITLE "3:cjc093_0410"
    INDEX 01 00:24:04
  TRACK 21 AUDIO
    TITLE "0:"
    INDEX 01 00:25:01
  TRACK 22 AUDIO
    TITLE "4:cjc093_0411"
    INDEX 01 00:25:48
  TRACK 23 AUDIO
    TITLE "0:"
    INDEX 01 00:27:28
  TRACK 24 AUDIO
    TITLE "4:cjc093_0412"
    INDEX 01 00:28:41
  TRACK 25 AUDIO
    TITLE "0:"
    INDEX 01 00:31:16
  TRACK 26 AUDIO
    TITLE "2:cjc093_0413"
    INDEX 01 00:32:37
  TRACK 27 AUDIO
    TITLE "0:"
    INDEX 01 00:33:36
  TRACK 28 AUDIO
    TITLE "3:cjc093_0414"
    INDEX 01 00:34:08
  TRACK 29 AUDIO
    TITLE "0:"
    INDEX 01 00:35:59
  TRACK 30 AUDIO
    TITLE "4:cjc093_0415"
    INDEX 01 00:36:11
  TRACK 31 AUDIO
    TITLE "0:"
    INDEX 01 00:39:00
  TRACK 32 AUDIO
    TITLE "3:cjc093_0416"
    INDEX 01 00:40:13
  TRACK 33 AUDIO
    TITLE "0:"
    INDEX 01 00:41:69
  TRACK 34 AUDIO
    TITLE "4:cjc093_0417"
    INDEX 01 00:42:72
  TRACK 35 AUDIO
    TITLE "0:"
    INDEX 01 00:46:25
  TRACK 36 AUDIO
    TITLE "3:cjc093_0418"
    INDEX 01 00:47:38
  TRACK 37 AUDIO
    TITLE "0:"
    INDEX 01 00:48:53
  TRACK 38 AUDIO
    TITLE "4:cjc093_0419"
    INDEX 01 00:49:23
  TRACK 39 AUDIO
    TITLE "0:"
    INDEX 01 00:52:00
  TRACK 40 AUDIO
    TITLE "2:cjc093_0420"
    INDEX 01 00:53:13
  TRACK 41 AUDIO
    TITLE "0:"
    INDEX 01 00:54:32
  TRACK 42 AUDIO
    TITLE "3:cjc093_0421"
    INDEX 01 00:54:68
  TRACK 43 AUDIO
    TITLE "0:"
    INDEX 01 00:56:41
  TRACK 44 AUDIO
    TITLE "4:cjc093_0422"
    INDEX 01 00:56:61
  TRACK 45 AUDIO
    TITLE "0:"
    INDEX 01 01:01:21
  TRACK 46 AUDIO
    TITLE "3:cjc093_0423"
    INDEX 01 01:02:28
  TRACK 47 AUDIO
    TITLE "0:"
    INDEX 01 01:04:09
  TRACK 48 AUDIO
    TITLE "4:cjc093_0424"
    INDEX 01 01:04:31
  TRACK 49 AUDIO
    TITLE "0:"
    INDEX 01 01:07:06
  TRACK 50 AUDIO
    TITLE "2:cjc093_0425"
    INDEX 01 01:08:25
  TRACK 51 AUDIO
    TITLE "0:"
    INDEX 01 01:09:32
  TRACK 52 AUDIO
    TITLE "3:cjc093_0426"
    INDEX 01 01:10:04
  TRACK 53 AUDIO
    TITLE "0:"
    INDEX 01 01:11:51
  TRACK 54 AUDIO
    TITLE "4:cjc093_0427"
    INDEX 01 01:12:19
  TRACK 55 AUDIO
    TITLE "0:"
    INDEX 01 01:15:05
  TRACK 56 AUDIO
    TITLE "3:cjc093_0428"
    INDEX 01 01:16:14
  TRACK 57 AUDIO
    TITLE "0:"
    INDEX 01 01:17:47
  TRACK 58 AUDIO
    TITLE "4:cjc093_0429"
    INDEX 01 01:18:04
  TRACK 59 AUDIO
    TITLE "0:"
    INDEX 01 01:21:27
  TRACK 60 AUDIO
    TITLE "3:cjc093_0430"
    INDEX 01 01:22:48
  TRACK 61 AUDIO
    TITLE "0:"
    INDEX 01 01:24:18
  TRACK 62 AUDIO
    TITLE "4:cjc093_0431"
    INDEX 01 01:24:57
  TRACK 63 AUDIO
    TITLE "0:"
    INDEX 01 01:27:42
